<svg xmlns:svg="http://www.w3.org/2000/svg" xmlns="http://www.w3.org/2000/svg" width="40mm" height="40mm" viewBox="0 0 40 40" version="1.1" id="svg1065">
<style>
.s0{
	fill:#efefef;
	stroke-linejoin:round;
	stroke-width:0.125547;
	stroke:#2e2e2e;
}

</style>  <defs id="defs1059"/>
  <metadata id="metadata1062"/>
  <g id="layer1">
    <g id="g1133" transform="matrix(9.3353627,0,0,9.3353627,-906.24302,-1303.2043)">
      <g id="g1039" transform="translate(29.002838,49.836943)">
        <path id="path32" d="m71.612912 91.904129-0.6985 1.209837h-1.397l-0.6985-1.209837 0.6985-1.209837h1.397z" style="fill:#ff0;stroke-linejoin:round;stroke-width:0.19;stroke:#000"/>
        <path id="path915" d="m71.109992 91.904129-0.44704 0.774296h-0.89408l-0.44704-0.774296 0.44704-0.774296h0.89408z" style="fill:none;stroke-linejoin:round;stroke-width:0.19;stroke:#000"/>
      </g>
      <g id="g1035" transform="translate(29.084785,49.877171)">
        <g id="g1021" transform="rotate(0.10276705,70.069165,91.751402)">
          <path d="m70.07117 91.753719c0 0-1.296932-1.470005-1.886407-1.05561-0.23248 0.163431-0.136641 0.775514 0.139895 0.840974 0.71949 0.170318 1.746512 0.214636 1.746512 0.214636zM70.071166 91.753711 70.071166 91.753711" id="path861" class="s0"/>
          <path d="m70.071166 91.753711c0 0-1.462129-0.683805-1.71409-0.16795-0.07974 0.163258 0.209701 0.320684 0.375419 0.395178 0.177316 0.0797 0.412094-0.0731 0.582889 0.01975 0.05819 0.03163 0.04866 0.150052 0.113614 0.163012 0.249053 0.04969 0.642168-0.40999 0.642168-0.40999z" id="path863" class="s0"/>
        </g>
        <g id="g1027" transform="matrix(-0.99999839,0.00179362,0.00179362,0.99999839,140.10325,-0.12553004)">
          <path d="m70.07117 91.753719c0 0-1.296932-1.470005-1.886407-1.05561-0.23248 0.163431-0.136641 0.775514 0.139895 0.840974 0.71949 0.170318 1.746512 0.214636 1.746512 0.214636zM70.071166 91.753711 70.071166 91.753711" id="path1023" class="s0"/>
          <path d="m70.071166 91.753711c0 0-1.462129-0.683805-1.71409-0.16795-0.07974 0.163258 0.209701 0.320684 0.375419 0.395178 0.177316 0.0797 0.412094-0.0731 0.582889 0.01975 0.05819 0.03163 0.04866 0.150052 0.113614 0.163012 0.249053 0.04969 0.642168-0.40999 0.642168-0.40999z" id="path1025" class="s0"/>
        </g>
      </g>
    </g>
  </g>
</svg>
